<svg xmlns="http://www.w3.org/2000/svg" viewBox="0 0 512 512"><!--!Font Awesome Free 6.5.1 by @fontawesome - https://fontawesome.com License - https://fontawesome.com/license/free Copyright 2024 Fonticons, Inc.--><path d="M158.9 .2c-16.2-1.5-31.2 8.4-35.3 24.1l-14.8 56.3c187.6 5.5 314.5 130.6 322.5 317l56.9-15.8c15.7-4.4 25.5-19.7 23.6-35.9C490.9 165.1 340.8 17.3 158.9 .2zm-58.5 112L.6 491.6a16.2 16.2 0 0 0 20 19.8l379-105.1c-4.3-174.9-123.1-292.1-299.2-294.1zM128 416a32 32 0 1 1 32-32 32 32 0 0 1 -32 32zm48-152a32 32 0 1 1 32-32 32 32 0 0 1 -32 32zm104 104a32 32 0 1 1 32-32 32 32 0 0 1 -32 32z"/></svg>